<svg width="28" height="22" viewBox="0 0 28 22" fill="none" xmlns="http://www.w3.org/2000/svg">
<path d="M19.9686 9.77095C19.6912 7.00614 17.5306 5.00021 14.8266 5.00021C13.0251 5.00021 11.3757 5.87824 10.4475 7.28546C9.5278 5.86003 7.94595 4.99988 6.17336 4.99988C3.4697 4.99988 1.30868 7.0058 1.0317 9.77061C1.00978 9.89274 0.919889 10.5355 1.19321 11.5836C1.58712 13.0954 2.49699 14.4705 3.82378 15.5594L10.4431 21L17.1761 15.5597C18.5029 14.4705 19.4128 13.0957 19.8067 11.5836C20.08 10.5358 19.9902 9.89307 19.9686 9.77095ZM19.0953 11.432C18.7357 12.8128 17.9022 14.0707 16.6872 15.0676L10.4475 20.1097L4.31489 15.0689C3.09772 14.0701 2.26459 12.8124 1.90466 11.4317C1.64595 10.4398 1.75229 9.8795 1.75265 9.87586L1.75813 9.84243C1.99565 7.42016 3.85229 5.66179 6.17336 5.66179C7.88602 5.66179 9.39369 6.61495 10.1092 8.14893L10.4457 8.87141L10.7822 8.14893C11.4864 6.63844 13.0737 5.66212 14.8269 5.66212C17.1476 5.66212 19.0046 7.42049 19.2469 9.8742C19.2476 9.8795 19.354 10.4401 19.0953 11.432Z" fill="#1B1A17" stroke="#1B1A17" stroke-width="0.75"/>
<ellipse cx="21.5" cy="6.49991" rx="6.5" ry="6.50004" fill="#E6C8B4"/>
<path d="M22.0977 3.28113V8.99988H21.375V4.18347L19.918 4.71472V4.06238L21.9844 3.28113H22.0977Z" fill="#1B1A17"/>
<path d="M22.0977 3.28113H23.0977V2.28113H22.0977V3.28113ZM22.0977 8.99988V9.99988H23.0977V8.99988H22.0977ZM21.375 8.99988H20.375V9.99988H21.375V8.99988ZM21.375 4.18347H22.375V2.75446L21.0324 3.24397L21.375 4.18347ZM19.918 4.71472H18.918V6.14373L20.2605 5.65422L19.918 4.71472ZM19.918 4.06238L19.5643 3.127L18.918 3.37137V4.06238H19.918ZM21.9844 3.28113V2.28113H21.8017L21.6307 2.34575L21.9844 3.28113ZM21.0977 3.28113V8.99988H23.0977V3.28113H21.0977ZM22.0977 7.99988H21.375V9.99988H22.0977V7.99988ZM22.375 8.99988V4.18347H20.375V8.99988H22.375ZM21.0324 3.24397L19.5754 3.77522L20.2605 5.65422L21.7176 5.12297L21.0324 3.24397ZM20.918 4.71472V4.06238H18.918V4.71472H20.918ZM20.2716 4.99776L22.338 4.21651L21.6307 2.34575L19.5643 3.127L20.2716 4.99776ZM21.9844 4.28113H22.0977V2.28113H21.9844V4.28113Z" fill="#1B1A17"/>
</svg>
